<svg width="331" height="184" viewBox="0 0 331 184" fill="none" xmlns="http://www.w3.org/2000/svg">
<g clip-path="url(#clip0_563_172)">
<path d="M13.5726 148.93C4.87772 136.957 0.176819 122.192 0.00679899 107.398C-0.163221 92.603 4.14693 77.8291 11.9529 65.2596C19.7589 52.69 31.0101 42.3337 44.0181 35.2794C57.0261 28.2251 71.7552 24.4608 86.547 24.0491C102.979 23.5928 119.215 27.1841 135.54 29.1169C151.864 31.0498 169.054 31.1959 183.977 24.3086C194.748 19.3363 203.682 10.9904 214.438 5.9942C226.98 0.162818 241.414 -0.761852 255.064 1.47824C271.105 4.10907 286.44 11.0441 298.917 21.463C311.397 31.882 320.972 45.7729 326.129 61.188C331.289 76.6032 331.996 93.5038 327.999 109.259C324.002 125.014 315.301 139.57 303.209 150.437C284.065 167.641 257.814 174.812 232.177 177.118C206.542 179.424 180.693 177.425 155.002 179.027C131.907 180.467 108.897 184.813 85.7893 183.543C72.0117 182.785 58.2551 179.984 45.6676 174.335C33.0772 168.685 21.6769 160.101 13.5696 148.936L13.5726 148.93Z" fill="#F0E040"/>
<path fill-rule="evenodd" clip-rule="evenodd" d="M300.304 160.865C300.304 161.989 292.348 163.069 278.189 163.865C264.027 164.662 244.82 165.109 224.794 165.109C204.767 165.109 185.561 164.662 171.402 163.865C157.239 163.069 149.287 161.989 149.287 160.865C149.287 159.74 157.242 158.657 171.402 157.861C185.564 157.064 204.77 156.617 224.794 156.617C244.817 156.617 264.027 157.064 278.189 157.861C292.348 158.657 300.304 159.737 300.304 160.865Z" fill="#402126"/>
<path fill-rule="evenodd" clip-rule="evenodd" d="M211.898 153.005C212.813 153.303 229.544 154.126 232.58 153.199L235.617 152.271L233.651 148.387C233.601 148.405 218.236 146.1 214.71 149.676C210.66 153.786 209.258 147.788 209.258 147.788L211.901 153.005H211.898Z" fill="#030046"/>
<path fill-rule="evenodd" clip-rule="evenodd" d="M222.774 155.087C224.116 155.844 244.53 162.529 260.885 161.199C277.237 159.868 286.179 150.061 285.75 141.646C285.323 133.229 280.029 127.04 265.511 131.517C250.991 135.994 226.977 143.612 224.569 144.101C222.708 145.16 221.267 148.671 221.482 151.105C221.697 153.539 222.777 155.09 222.777 155.09L222.774 155.087Z" fill="#3487D5"/>
<path fill-rule="evenodd" clip-rule="evenodd" d="M231.998 157.932C239.738 159.898 251.043 161.998 260.884 161.199C272.871 160.223 280.874 154.693 284.126 148.495C281.835 146.589 279.264 144.874 276.502 143.6C264.367 138.007 230.668 148.984 230.125 152.802C229.931 154.159 230.796 156.05 231.995 157.932H231.998Z" fill="#002F5B"/>
<path fill-rule="evenodd" clip-rule="evenodd" d="M269.451 138.762C270.79 134.675 275.154 132.435 279.199 133.76C281.144 134.395 282.751 135.785 283.67 137.622C284.589 139.46 284.744 141.596 284.103 143.555C283.458 145.518 282.071 147.147 280.243 148.086C278.414 149.023 276.297 149.193 274.352 148.557C270.307 147.233 268.112 142.845 269.448 138.759L269.451 138.762Z" fill="#030046"/>
<path fill-rule="evenodd" clip-rule="evenodd" d="M297.652 137.664C297.882 139.356 296.134 140.978 293.736 141.303L285.554 142.41C283.156 142.735 281.041 141.634 280.811 139.943C280.582 138.252 282.33 136.629 284.728 136.304L292.91 135.195C295.308 134.869 297.423 135.97 297.652 137.661V137.664Z" fill="#FF5872"/>
<path fill-rule="evenodd" clip-rule="evenodd" d="M289.89 150.21C289.341 151.179 287.202 151 285.096 149.81L283.047 148.65C280.938 147.46 279.686 145.718 280.234 144.748C280.783 143.779 282.922 143.955 285.028 145.148L287.077 146.308C289.183 147.502 290.439 149.241 289.89 150.21Z" fill="#FF5872"/>
<path fill-rule="evenodd" clip-rule="evenodd" d="M285.51 127.505C284.642 126.634 282.563 127.308 280.851 129.017L278.375 131.487C276.66 133.196 275.98 135.272 276.848 136.143C277.716 137.014 279.795 136.34 281.51 134.631L283.989 132.161C285.704 130.452 286.384 128.373 285.516 127.505H285.51Z" fill="#FF5872"/>
<path fill-rule="evenodd" clip-rule="evenodd" d="M142.1 162.09C142.1 163.218 136.975 164.298 127.854 165.094C118.732 165.891 106.36 166.338 93.459 166.338C80.5583 166.338 68.1857 165.891 59.0642 165.094C49.9428 164.298 44.8184 163.218 44.8184 162.09C44.8184 160.963 49.9428 159.886 59.0642 159.09C68.1857 158.293 80.5583 157.846 93.459 157.846C106.36 157.846 118.732 158.293 127.854 159.09C136.975 159.886 142.1 160.966 142.1 162.09Z" fill="#402126"/>
<path fill-rule="evenodd" clip-rule="evenodd" d="M117.347 153.873C116.515 153.393 100.309 149.154 97.1442 149.44L93.9824 149.727L95.1129 153.93C95.1636 153.924 109.12 156.349 113.914 157.84C119.811 159.677 118.865 159.522 118.865 159.522L117.347 153.873Z" fill="#030046"/>
<path fill-rule="evenodd" clip-rule="evenodd" d="M107.126 149.604C105.966 148.587 87.3594 137.855 71.0822 135.803C54.805 133.751 44.0401 141.515 42.7336 149.837C41.4241 158.162 45.3376 165.309 60.4634 163.904C75.5922 162.499 100.66 159.97 103.115 159.988C105.155 159.331 107.287 156.193 107.574 153.768C107.86 151.343 107.126 149.604 107.126 149.604Z" fill="#3487D5"/>
<path fill-rule="evenodd" clip-rule="evenodd" d="M98.6823 144.927C91.5086 141.414 80.8779 137.038 71.0824 135.803C59.1482 134.3 50.1818 138.07 45.7285 143.469C47.5779 145.807 49.7434 148.012 52.1863 149.825C62.9155 157.789 98.1484 153.959 99.4638 150.332C99.9321 149.044 99.4757 147.015 98.6882 144.927H98.6823Z" fill="#64BBFE"/>
<path fill-rule="evenodd" clip-rule="evenodd" d="M58.0956 156.006C57.0635 157.795 55.3723 159.105 53.3887 159.648C51.4052 160.19 49.2993 159.922 47.5275 158.902C45.7557 157.882 44.4672 156.191 43.9452 154.204C43.4232 152.217 43.7065 150.097 44.7386 148.307C45.7706 146.517 47.4619 145.208 49.4455 144.665C51.426 144.122 53.5349 144.391 55.3067 145.411C57.0785 146.434 58.367 148.122 58.889 150.109C59.411 152.095 59.1247 154.216 58.0956 156.006Z" fill="#030046"/>
<path fill-rule="evenodd" clip-rule="evenodd" d="M30.2704 151.293C30.3927 149.589 32.436 148.358 34.8491 148.534L43.0846 149.127C45.4977 149.3 47.344 150.812 47.2188 152.516C47.0965 154.219 45.0532 155.451 42.6401 155.275L34.4046 154.678C31.9915 154.505 30.1452 152.993 30.2675 151.29L30.2704 151.293Z" fill="#FF5872"/>
<path fill-rule="evenodd" clip-rule="evenodd" d="M40.4424 140.605C41.1762 139.77 43.2343 140.382 45.0509 141.98L46.8197 143.534C48.6362 145.133 49.5101 147.093 48.7734 147.931C48.0366 148.766 45.9815 148.155 44.165 146.556L42.3962 144.999C40.5796 143.4 39.7086 141.44 40.4454 140.602L40.4424 140.605Z" fill="#FF5872"/>
<path fill-rule="evenodd" clip-rule="evenodd" d="M40.0649 163.728C40.7361 164.757 42.9105 164.524 44.9359 163.203L47.868 161.294C49.8963 159.973 50.988 158.082 50.3168 157.05C49.6457 156.02 47.4742 156.253 45.4429 157.574L42.5138 159.483C40.4855 160.805 39.3938 162.696 40.0649 163.728Z" fill="#FF5872"/>
<path fill-rule="evenodd" clip-rule="evenodd" d="M100.302 150.237C99.887 150.953 98.9742 151.197 98.2584 150.786C97.5425 150.371 97.2979 149.458 97.7095 148.742C98.1212 148.027 99.0369 147.782 99.7528 148.194C100.469 148.605 100.713 149.521 100.302 150.237Z" fill="#F3F3F3"/>
<path fill-rule="evenodd" clip-rule="evenodd" d="M73.6371 155.355C72.4112 155.627 71.1614 155.564 70.1681 155.179C69.1748 154.798 68.5156 154.129 68.3367 153.318C67.9638 151.63 69.7356 149.807 72.2919 149.244C74.8481 148.68 77.2195 149.593 77.5923 151.281C77.7713 152.089 77.4521 152.975 76.7124 153.739C75.9697 154.502 74.863 155.084 73.6371 155.352V155.355Z" fill="#F3F3F3"/>
<path fill-rule="evenodd" clip-rule="evenodd" d="M79.5016 147.836C79.0333 148.65 77.9953 148.927 77.181 148.459C76.3667 147.991 76.0893 146.953 76.5576 146.138C77.0289 145.324 78.0669 145.047 78.8812 145.515C79.6955 145.983 79.9729 147.024 79.5046 147.839L79.5016 147.836Z" fill="#F3F3F3"/>
<path fill-rule="evenodd" clip-rule="evenodd" d="M83.7455 150.285C83.5009 150.705 82.964 150.851 82.5404 150.61C82.1198 150.365 81.9737 149.828 82.2183 149.405C82.4629 148.984 82.9998 148.838 83.4233 149.079C83.8469 149.324 83.9901 149.864 83.7485 150.285H83.7455Z" fill="#F3F3F3"/>
<path fill-rule="evenodd" clip-rule="evenodd" d="M236.166 127.362C228.602 142.171 215.465 153.372 199.645 158.496C183.824 163.621 166.616 162.252 151.806 154.687C120.964 138.938 108.732 101.167 124.481 70.3274C140.23 39.4852 178.001 27.2527 208.841 43.0019C223.65 50.5663 234.851 63.7026 239.972 79.5234C245.097 95.3442 243.727 112.552 236.163 127.365L236.166 127.362Z" fill="#64BBFE"/>
<path fill-rule="evenodd" clip-rule="evenodd" d="M240.881 82.8641C217.054 96.5582 185.341 114.882 185.341 114.882C185.341 114.882 129.658 84.4629 136.196 95.5172C155.179 107.621 168.139 122.061 165.231 132.31C163.116 139.755 156.222 148.829 147.083 151.97C148.619 152.945 150.194 153.852 151.811 154.69C166.621 162.255 183.828 163.624 199.649 158.499C215.47 153.375 228.606 142.174 236.171 127.365C243.159 113.617 244.839 97.7722 240.883 82.8641H240.881Z" fill="#3487D5"/>
<path fill-rule="evenodd" clip-rule="evenodd" d="M165.618 28.2639L246.118 69.3729C256.179 74.5093 260.14 86.7448 255.004 96.8028L239.607 126.956C234.47 137.014 222.238 140.978 212.177 135.842L131.677 94.7327C121.619 89.5963 117.655 77.3609 122.794 67.3028L138.191 37.1496C143.328 27.0886 155.563 23.1275 165.621 28.2639H165.618Z" fill="#402126"/>
<path fill-rule="evenodd" clip-rule="evenodd" d="M215.507 48.1891C215.408 48.3829 214.633 48.2189 213.35 47.7357C212.068 47.2525 210.382 46.4889 208.667 45.6119C205.097 43.7894 202.368 41.9848 202.573 41.5821C202.672 41.3883 203.447 41.5523 204.73 42.0355C206.013 42.5187 207.698 43.2823 209.413 44.1563C212.983 45.9788 215.713 47.7834 215.507 48.1861V48.1891Z" fill="#402126"/>
<path fill-rule="evenodd" clip-rule="evenodd" d="M209.694 45.1108L223.319 18.4296L222.099 17.8062L208.527 44.38L209.694 45.1078V45.1108Z" fill="#402126"/>
<path fill-rule="evenodd" clip-rule="evenodd" d="M213.227 35.9416C210.14 34.3637 206.388 35.5807 204.81 38.6679L203.047 42.119L214.796 48.1204L216.559 44.6693C218.134 41.5821 216.92 37.8297 213.833 36.2518L213.227 35.9416Z" fill="#402126"/>
<path fill-rule="evenodd" clip-rule="evenodd" d="M215.135 32.5979C213.667 31.8492 211.737 32.7172 210.804 34.5427L209.76 36.5859L215.341 39.4375L216.385 37.3942C217.315 35.5688 216.889 33.4927 215.421 32.744L215.135 32.5979Z" fill="#402126"/>
<path fill-rule="evenodd" clip-rule="evenodd" d="M226.879 15.4468C226.253 16.6757 224.747 17.1619 223.518 16.5355C222.289 15.9091 221.8 14.4028 222.429 13.1739C222.73 12.5833 223.255 12.1358 223.885 11.933C224.514 11.7272 225.2 11.7839 225.791 12.0851C226.381 12.3864 226.829 12.9114 227.031 13.5407C227.237 14.1701 227.181 14.8562 226.879 15.4497V15.4468Z" fill="#402126"/>
<path fill-rule="evenodd" clip-rule="evenodd" d="M170.122 40.738C170.122 47.9802 164.252 53.8504 157.01 53.8504C153.532 53.8504 150.197 52.4694 147.736 50.0085C145.276 47.5477 143.895 44.2129 143.895 40.735C143.895 37.257 145.276 33.9223 147.736 31.4615C150.197 29.0036 153.532 27.6196 157.01 27.6196C160.488 27.6196 163.823 29.0006 166.283 31.4615C168.744 33.9223 170.125 37.257 170.125 40.735L170.122 40.738Z" fill="#57383D"/>
<path fill-rule="evenodd" clip-rule="evenodd" d="M182.682 46.5843C182.682 47.506 182.315 48.3889 181.665 49.0421C181.012 49.6953 180.129 50.0592 179.207 50.0592C177.289 50.0592 175.732 48.5022 175.732 46.5843C175.732 44.6663 177.289 43.1063 179.207 43.1063C180.129 43.1063 181.015 43.4732 181.665 44.1235C182.315 44.7737 182.682 45.6596 182.682 46.5813V46.5843Z" fill="#57383D"/>
<path fill-rule="evenodd" clip-rule="evenodd" d="M172.723 56.0666C172.723 57.027 171.947 57.8056 170.987 57.8056C170.027 57.8056 169.248 57.027 169.248 56.0666C169.248 55.6042 169.43 55.1628 169.758 54.8377C170.083 54.5125 170.525 54.3276 170.987 54.3276C171.449 54.3276 171.891 54.5096 172.216 54.8377C172.541 55.1628 172.726 55.6042 172.726 56.0666H172.723Z" fill="#57383D"/>
<path fill-rule="evenodd" clip-rule="evenodd" d="M167.47 47.6014C169.996 49.573 171.061 51.4105 170.662 53.1166C169.057 57.6952 168.496 60.168 168.979 60.5378C168.884 60.7049 168.902 60.8331 169.036 60.9286L169.805 61.5371C170.438 62.0263 172.675 60.9196 176.511 58.2202C178.3 57.3462 180.209 57.7072 182.241 59.303L182.575 59.5595L182.888 59.6132C182.837 59.6848 182.843 59.7534 182.909 59.816C182.972 59.7504 183.04 59.7444 183.112 59.7951C183.061 59.8697 183.067 59.9353 183.133 59.998C183.192 59.9115 183.261 59.9055 183.335 59.9741L183.24 60.0725C183.326 60.1322 183.395 60.1232 183.443 60.0517C184.937 61.2239 185.298 62.5154 184.526 63.9263C183.777 64.8838 181.349 65.7876 177.245 66.6317C172.833 67.5534 170.247 68.5049 169.48 69.4893L169.406 69.5996C168.708 70.4855 168.49 74.9567 168.753 83.0163C168.577 84.6031 168.305 85.6382 167.935 86.1214L167.679 86.4555C166.891 87.4428 165.609 87.3324 163.831 86.1273L163.607 85.9454C160.806 83.765 159.631 81.844 160.078 80.1737L162.002 73.8084C162.143 72.6093 161.943 71.8069 161.397 71.3953C160.436 70.6436 157.907 71.7621 153.803 74.7479C151.897 75.5056 150.095 75.2252 148.392 73.9098L147.497 73.2118L147.196 73.1402C147.258 73.0746 147.246 73.0119 147.16 72.9553C147.109 73.0298 147.047 73.0388 146.975 72.9881C147.035 72.9046 147.026 72.836 146.954 72.7853C146.892 72.8509 146.823 72.8568 146.751 72.8061C146.811 72.7196 146.802 72.651 146.73 72.6033L146.656 72.7137C145.093 71.5116 144.756 70.1842 145.648 68.7316C146.355 67.8338 149.34 66.8286 154.599 65.719C158.384 64.8182 160.553 64.0158 161.108 63.3178L161.546 62.7571C162.184 61.9368 162.408 58.602 162.223 52.7557C162.187 49.9071 162.515 48.0309 163.213 47.1242C164.347 46.107 165.695 46.2084 167.264 47.4314L167.47 47.6014Z" fill="#F9C12C"/>
<path fill-rule="evenodd" clip-rule="evenodd" d="M213.923 70.9866C216.449 72.9582 217.514 74.7957 217.115 76.4988C215.51 81.0774 214.952 83.5502 215.435 83.9201C215.337 84.0871 215.358 84.2154 215.492 84.3078L216.259 84.9163C216.891 85.4085 219.128 84.3019 222.964 81.5994C224.751 80.7255 226.663 81.0864 228.691 82.6822L229.025 82.9387L229.338 82.9924C229.287 83.067 229.296 83.1326 229.359 83.1952C229.422 83.1326 229.49 83.1236 229.562 83.1744C229.511 83.2459 229.52 83.3145 229.583 83.3772C229.642 83.2907 229.711 83.2847 229.786 83.3563L229.69 83.4518C229.777 83.5114 229.845 83.5054 229.893 83.4309C231.387 84.6031 231.748 85.8947 230.976 87.3055C230.227 88.266 227.799 89.1638 223.695 90.011C219.283 90.9326 216.697 91.8841 215.93 92.8685L215.856 92.9788C215.158 93.8647 214.94 98.336 215.203 106.393C215.027 107.982 214.755 109.017 214.388 109.501L214.129 109.835C213.341 110.822 212.059 110.712 210.281 109.507L210.057 109.325C207.256 107.147 206.081 105.223 206.532 103.553L208.456 97.1876C208.596 95.9885 208.393 95.1861 207.85 94.7745C206.89 94.0258 204.36 95.1414 200.256 98.1272C198.35 98.8848 196.545 98.6044 194.845 97.289L193.95 96.591L193.649 96.5194C193.712 96.4538 193.7 96.3912 193.613 96.3345C193.562 96.4061 193.5 96.418 193.428 96.3673C193.488 96.2808 193.482 96.2122 193.407 96.1645C193.345 96.2301 193.276 96.2361 193.204 96.1854C193.261 96.0989 193.255 96.0302 193.184 95.9825L193.109 96.0929C191.546 94.8908 191.209 93.5605 192.101 92.1079C192.811 91.21 195.794 90.2048 201.052 89.0952C204.837 88.1944 207.006 87.392 207.561 86.6941L208.002 86.1333C208.637 85.313 208.864 81.9782 208.679 76.1319C208.643 73.2834 208.972 71.4072 209.67 70.5004C210.803 69.4803 212.151 69.5847 213.72 70.8047L213.926 70.9747L213.923 70.9866Z" fill="#F9C12C"/>
<path fill-rule="evenodd" clip-rule="evenodd" d="M132.356 125.175C132.848 124.513 132.711 123.577 132.048 123.081C131.386 122.586 130.45 122.723 129.958 123.389C129.462 124.051 129.6 124.987 130.265 125.483C130.927 125.975 131.864 125.837 132.359 125.175H132.356Z" fill="#F3F3F3"/>
<path fill-rule="evenodd" clip-rule="evenodd" d="M126.481 98.67C126.242 97.4352 125.69 96.3166 124.945 95.556C124.199 94.7954 123.322 94.4553 122.508 94.6134C120.813 94.9415 119.841 97.292 120.336 99.8602C120.834 102.431 122.612 104.248 124.309 103.917C126.003 103.589 126.976 101.238 126.481 98.67Z" fill="#F3F3F3"/>
<path fill-rule="evenodd" clip-rule="evenodd" d="M121.902 107.034C122.462 106.279 122.307 105.214 121.553 104.654C120.801 104.093 119.736 104.248 119.175 105.003C118.904 105.363 118.79 105.817 118.856 106.264C118.922 106.712 119.16 107.111 119.524 107.383C119.885 107.651 120.342 107.765 120.786 107.702C121.23 107.636 121.633 107.398 121.902 107.037V107.034Z" fill="#F3F3F3"/>
<path fill-rule="evenodd" clip-rule="evenodd" d="M125.838 109.963C126.13 109.572 126.046 109.017 125.659 108.728C125.268 108.439 124.716 108.519 124.424 108.91C124.131 109.301 124.212 109.853 124.606 110.145C124.996 110.434 125.548 110.354 125.841 109.963H125.838Z" fill="#F3F3F3"/>
<path fill-rule="evenodd" clip-rule="evenodd" d="M235.615 152.268C236.278 152.763 237.214 152.626 237.709 151.961C238.205 151.299 238.064 150.362 237.402 149.867C236.74 149.375 235.803 149.512 235.308 150.174C234.813 150.836 234.953 151.773 235.615 152.268Z" fill="white"/>
<path fill-rule="evenodd" clip-rule="evenodd" d="M262.118 146.395C263.353 146.156 264.471 145.605 265.232 144.859C265.995 144.113 266.332 143.239 266.174 142.425C265.846 140.728 263.496 139.755 260.928 140.253C258.359 140.751 256.54 142.529 256.871 144.226C257.199 145.921 259.549 146.893 262.118 146.398V146.395Z" fill="white"/>
<path fill-rule="evenodd" clip-rule="evenodd" d="M253.752 141.816C254.507 142.377 255.572 142.219 256.133 141.467C256.694 140.716 256.538 139.648 255.784 139.087C255.423 138.819 254.969 138.705 254.522 138.768C254.075 138.834 253.675 139.072 253.403 139.436C253.135 139.797 253.019 140.25 253.084 140.698C253.15 141.145 253.389 141.545 253.75 141.816H253.752Z" fill="white"/>
<path fill-rule="evenodd" clip-rule="evenodd" d="M250.826 145.751C251.217 146.043 251.769 145.959 252.061 145.569C252.353 145.178 252.27 144.626 251.879 144.334C251.488 144.042 250.937 144.122 250.644 144.513C250.355 144.904 250.435 145.455 250.826 145.748V145.751Z" fill="white"/>
</g>
<defs>
<clipPath id="clip0_563_172">
<rect width="330.567" height="183.41" fill="white" transform="translate(0 0.356735)"/>
</clipPath>
</defs>
</svg>
