<svg width="197" height="231" viewBox="0 0 197 231" fill="none" xmlns="http://www.w3.org/2000/svg">
<g clip-path="url(#clip0_767_5)">
<path d="M18.4399 224.361L14.9776 228.487L1.60668 217.268L5.22236 212.959C6.31072 211.662 7.50971 210.776 8.81934 210.303C10.1246 209.826 11.482 209.759 12.8914 210.104C14.2965 210.445 15.6911 211.196 17.0752 212.357C18.468 213.526 19.4589 214.78 20.048 216.12C20.6327 217.456 20.7969 218.825 20.5404 220.227C20.2796 221.625 19.5794 223.003 18.4399 224.361ZM14.8999 225.663L16.9159 223.26C17.8436 222.155 18.3991 221.06 18.5825 219.975C18.7659 218.89 18.6134 217.839 18.1251 216.821C17.6367 215.803 16.8485 214.837 15.7604 213.924C14.6809 213.018 13.6038 212.415 12.5288 212.114C11.4495 211.809 10.407 211.832 9.40114 212.182C8.39094 212.528 7.44757 213.224 6.57104 214.268L4.40164 216.854L14.8999 225.663ZM29.6274 211.453C28.8166 212.419 27.9039 213.073 26.8894 213.416C25.8741 213.751 24.8224 213.785 23.7343 213.517C22.6454 213.241 21.5874 212.672 20.5602 211.81C19.533 210.948 18.7847 210.002 18.3154 208.97C17.8453 207.93 17.6735 206.889 17.8 205.845C17.9258 204.794 18.3685 203.815 19.1282 202.91C19.5664 202.388 20.0863 201.945 20.6877 201.582C21.2891 201.218 21.961 200.992 22.7033 200.903C23.4413 200.81 24.2343 200.908 25.0823 201.197C25.9303 201.486 26.8222 202.023 27.758 202.808L28.4108 203.356L21.9245 211.086L20.5927 209.968L25.7642 203.805C25.1984 203.331 24.5985 203.02 23.9646 202.874C23.3344 202.723 22.7174 202.747 22.1137 202.945C21.5136 203.139 20.9798 203.514 20.5123 204.071C19.9973 204.685 19.7041 205.344 19.6326 206.048C19.5604 206.744 19.6654 207.414 19.9477 208.059C20.2299 208.704 20.6475 209.258 21.2002 209.722L22.0881 210.467C22.8455 211.102 23.597 211.51 24.3428 211.691C25.0879 211.864 25.7948 211.83 26.4634 211.59C27.1277 211.347 27.721 210.914 28.2433 210.291C28.5829 209.886 28.8331 209.473 28.9939 209.052C29.1539 208.623 29.219 208.191 29.1892 207.758C29.1551 207.322 29.0187 206.892 28.78 206.469L30.4469 205.331C30.8203 205.912 31.0433 206.548 31.1159 207.239C31.1842 207.927 31.0966 208.632 30.8534 209.355C30.6058 210.074 30.1971 210.774 29.6274 211.453ZM31.4658 188.472L38.3823 200.595L37.0675 202.162L23.9276 197.455L25.3301 195.784L35.6441 199.721L35.7318 199.617L30.0633 190.143L31.4658 188.472ZM46.6361 191.182C45.8253 192.149 44.9127 192.803 43.8981 193.146C42.8829 193.481 41.8312 193.514 40.743 193.247C39.6542 192.971 38.5962 192.402 37.569 191.54C36.5418 190.678 35.7935 189.731 35.3241 188.7C34.8541 187.66 34.6823 186.618 34.8088 185.575C34.9346 184.523 35.3773 183.545 36.1369 182.64C36.5752 182.117 37.095 181.675 37.6964 181.311C38.2979 180.948 38.9697 180.722 39.7121 180.633C40.4501 180.54 41.243 180.638 42.091 180.927C42.939 181.216 43.8309 181.753 44.7667 182.538L45.4196 183.086L38.9333 190.816L37.6014 189.698L42.7729 183.535C42.2071 183.06 41.6073 182.75 40.9734 182.604C40.3432 182.453 39.7262 182.477 39.1224 182.675C38.5223 182.868 37.9885 183.244 37.521 183.801C37.0061 184.415 36.7129 185.073 36.6414 185.777C36.5692 186.473 36.6742 187.144 36.9564 187.789C37.2387 188.433 37.6562 188.988 38.209 189.451L39.0969 190.197C39.8542 190.832 40.6058 191.24 41.3516 191.421C42.0967 191.594 42.8035 191.56 43.4722 191.32C44.1365 191.076 44.7298 190.643 45.252 190.021C45.5917 189.616 45.8419 189.203 46.0026 188.782C46.1627 188.352 46.2278 187.921 46.198 187.488C46.1638 187.052 46.0274 186.622 45.7888 186.199L47.4557 185.061C47.8291 185.642 48.0521 186.277 48.1247 186.969C48.1929 187.656 48.1054 188.362 47.8622 189.085C47.6146 189.804 47.2059 190.503 46.6361 191.182ZM39.8 171.751L53.171 182.97L51.8781 184.511L38.5072 173.291L39.8 171.751ZM59.1664 176.249C58.4067 177.155 57.5247 177.768 56.5205 178.09C55.5198 178.408 54.4714 178.433 53.3753 178.166C52.2828 177.894 51.2186 177.324 50.1827 176.455C49.1381 175.578 48.3851 174.624 47.9237 173.591C47.466 172.554 47.3066 171.516 47.4454 170.475C47.5879 169.43 48.039 168.455 48.7987 167.55C49.5583 166.645 50.4385 166.033 51.4391 165.716C52.4434 165.394 53.494 165.371 54.5908 165.646C55.6913 165.916 56.7639 166.49 57.8085 167.367C58.8444 168.236 59.589 169.187 60.0424 170.22C60.4994 171.249 60.6566 172.286 60.5141 173.331C60.3753 174.371 59.926 175.344 59.1664 176.249ZM57.7823 175.088C58.3593 174.4 58.6578 173.687 58.6778 172.947C58.6978 172.207 58.51 171.489 58.1144 170.794C57.7188 170.099 57.1859 169.47 56.5156 168.907C55.8453 168.345 55.1312 167.927 54.3734 167.655C53.6156 167.383 52.8719 167.319 52.1425 167.463C51.4131 167.608 50.7598 168.024 50.1828 168.711C49.6057 169.399 49.3094 170.115 49.2938 170.858C49.2782 171.601 49.4703 172.323 49.8702 173.022C50.2702 173.721 50.8053 174.351 51.4756 174.914C52.1459 175.476 52.8577 175.892 53.6112 176.161C54.3647 176.43 55.104 176.49 55.8291 176.342C56.5542 176.194 57.2052 175.776 57.7823 175.088ZM68.5045 172.334L54.7157 160.763L55.9648 159.275L57.5578 160.612L57.7112 160.429C57.632 160.17 57.5415 159.827 57.4397 159.4C57.3371 158.965 57.3381 158.469 57.4425 157.911C57.5463 157.346 57.8721 156.737 58.4199 156.084C59.1285 155.239 59.9641 154.672 60.9268 154.382C61.8895 154.092 62.9098 154.092 63.9877 154.381C65.0656 154.669 66.1312 155.256 67.1845 156.14C68.2465 157.031 69.0155 157.984 69.4915 158.999C69.9631 160.01 70.1437 161.015 70.0334 162.012C69.9187 163.007 69.5108 163.921 68.8096 164.757C68.269 165.401 67.7296 165.828 67.1913 166.036C66.6486 166.241 66.1525 166.333 65.703 166.311C65.2492 166.287 64.8833 166.254 64.6056 166.214L64.496 166.344L69.7974 170.793L68.5045 172.334ZM61.0008 163.456C61.7581 164.092 62.5194 164.541 63.2845 164.805C64.0453 165.065 64.7679 165.119 65.4522 164.966C66.1322 164.81 66.7315 164.423 67.2502 163.805C67.7907 163.16 68.072 162.481 68.0941 161.765C68.1154 161.041 67.928 160.327 67.5317 159.624C67.1347 158.913 66.5793 158.257 65.8655 157.659C65.1604 157.067 64.4336 156.642 63.6852 156.385C62.9361 156.12 62.2135 156.066 61.5175 156.224C60.8208 156.374 60.1985 156.775 59.6507 157.428C59.1247 158.055 58.8417 158.715 58.8015 159.408C58.757 160.097 58.9263 160.788 59.3095 161.481C59.6884 162.169 60.2521 162.828 61.0008 163.456ZM74.1447 157.975L64.1165 149.56L65.3655 148.071L66.9324 149.386L67.042 149.256C66.6819 148.598 66.5493 147.911 66.6441 147.197C66.7346 146.48 67.0537 145.794 67.6016 145.141C68.1567 144.48 68.7689 144.055 69.4381 143.868C70.1066 143.672 70.8126 143.675 71.5561 143.876L71.6438 143.771C71.3413 143.08 71.2532 142.35 71.3795 141.581C71.5014 140.808 71.8637 140.062 72.4663 139.344C73.2187 138.447 74.1148 137.949 75.1547 137.85C76.1903 137.748 77.2978 138.191 78.4774 139.181L85.189 144.813L83.8961 146.353L77.1845 140.722C76.4445 140.101 75.7459 139.86 75.0885 139.998C74.4311 140.136 73.8723 140.479 73.4121 141.028C72.8205 141.733 72.5754 142.458 72.6769 143.203C72.7741 143.945 73.1469 144.588 73.7954 145.132L80.3242 150.61L79.0094 152.177L72.1411 146.414C71.571 145.936 70.9565 145.735 70.2979 145.813C69.6349 145.887 69.0587 146.216 68.5693 146.799C68.2333 147.199 68.0259 147.663 67.947 148.19C67.8717 148.713 67.934 149.24 68.1337 149.771C68.3327 150.294 68.6781 150.762 69.1699 151.175L75.4376 156.434L74.1447 157.975ZM91.2898 137.966C90.479 138.933 89.5663 139.587 88.5518 139.93C87.5365 140.265 86.4848 140.298 85.3967 140.031C84.3079 139.755 83.2498 139.186 82.2226 138.324C81.1954 137.462 80.4472 136.515 79.9778 135.484C79.5077 134.444 79.3359 133.402 79.4624 132.359C79.5882 131.307 80.0309 130.329 80.7906 129.423C81.2289 128.901 81.7487 128.458 82.3501 128.095C82.9515 127.732 83.6234 127.506 84.3657 127.417C85.1037 127.324 85.8967 127.422 86.7447 127.711C87.5927 128 88.4846 128.537 89.4204 129.322L90.0733 129.87L83.587 137.6L82.2551 136.482L87.4266 130.319C86.8608 129.844 86.2609 129.534 85.627 129.387C84.9968 129.237 84.3798 129.261 83.7761 129.459C83.176 129.652 82.6422 130.028 82.1747 130.585C81.6597 131.199 81.3665 131.857 81.295 132.561C81.2228 133.257 81.3278 133.928 81.6101 134.572C81.8924 135.217 82.3099 135.772 82.8626 136.235L83.7506 136.98C84.5079 137.616 85.2595 138.024 86.0052 138.205C86.7503 138.378 87.4572 138.344 88.1258 138.104C88.7901 137.86 89.3834 137.427 89.9057 136.805C90.2453 136.4 90.4955 135.987 90.6563 135.566C90.8163 135.136 90.8815 134.705 90.8516 134.272C90.8175 133.835 90.6811 133.406 90.4424 132.983L92.1093 131.845C92.4828 132.425 92.7058 133.061 92.7783 133.753C92.8466 134.44 92.7591 135.146 92.5158 135.869C92.2682 136.588 91.8595 137.287 91.2898 137.966ZM91.7921 124.692L97.8247 129.754L96.5318 131.295L86.5036 122.88L87.7526 121.392L89.3195 122.706L89.4291 122.576C89.1171 121.913 89.0074 121.213 89.1001 120.475C89.1885 119.733 89.5504 118.984 90.1859 118.227C90.7556 117.548 91.3934 117.07 92.0993 116.795C92.8008 116.516 93.551 116.47 94.3499 116.658C95.1444 116.843 95.9682 117.293 96.8213 118.009L103.193 123.356L101.901 124.897L95.6329 119.637C94.8451 118.976 94.0597 118.666 93.2768 118.706C92.4895 118.743 91.7964 119.118 91.1975 119.832C90.7848 120.324 90.5225 120.853 90.4108 121.419C90.3026 121.981 90.36 122.545 90.5829 123.11C90.8058 123.675 91.2088 124.203 91.7921 124.692ZM99.1872 107.764L100.493 108.86L96.1322 114.057L94.8265 112.961L99.1872 107.764ZM93.6948 109.431L94.9877 107.89L104.546 115.91C104.981 116.275 105.361 116.486 105.684 116.542C106.007 116.591 106.289 116.546 106.531 116.408C106.773 116.262 106.988 116.075 107.178 115.849C107.321 115.679 107.429 115.533 107.503 115.409C107.572 115.282 107.628 115.181 107.67 115.104L109.317 115.952C109.268 116.09 109.185 116.268 109.067 116.488C108.954 116.712 108.776 116.968 108.535 117.255C108.17 117.69 107.718 118.038 107.181 118.299C106.647 118.555 106.073 118.66 105.46 118.613C104.85 118.561 104.254 118.291 103.671 117.801L93.6948 109.431ZM115.674 108.482L102.303 97.262L109.075 89.1924L110.511 90.3977L105.098 96.8481L109.616 100.639L114.678 94.6065L116.115 95.8117L111.053 101.844L115.597 105.657L121.097 99.1023L122.533 100.308L115.674 108.482ZM119.979 91.0998L126.012 96.1618L124.719 97.7026L114.691 89.2879L115.94 87.7993L117.507 89.1141L117.616 88.9835C117.304 88.3212 117.195 87.621 117.287 86.8829C117.376 86.1412 117.738 85.3916 118.373 84.6343C118.943 83.9553 119.581 83.478 120.287 83.2025C120.988 82.9234 121.738 82.8779 122.537 83.0661C123.332 83.2507 124.155 83.7009 125.009 84.4167L131.381 89.7636L130.088 91.3044L123.82 86.0452C123.032 85.3841 122.247 85.0737 121.464 85.114C120.677 85.1506 119.984 85.5258 119.385 86.2396C118.972 86.7315 118.71 87.2606 118.598 87.8269C118.49 88.3889 118.547 88.9525 118.77 89.5178C118.993 90.0831 119.396 90.6104 119.979 91.0998ZM130.294 70.6923L137.211 82.8153L135.896 84.3822L122.756 79.6759L124.159 78.0045L134.473 81.9417L134.56 81.8373L128.892 72.3636L130.294 70.6923ZM142.029 77.0732L132.001 68.6586L133.294 67.1178L143.322 75.5324L142.029 77.0732ZM130.987 66.4727C130.735 66.773 130.415 66.9461 130.028 66.9921C129.645 67.0337 129.309 66.934 129.022 66.693C128.735 66.4519 128.578 66.1389 128.553 65.754C128.531 65.3647 128.646 65.0199 128.898 64.7196C129.15 64.4193 129.467 64.2483 129.851 64.2067C130.238 64.1607 130.575 64.2582 130.863 64.4993C131.15 64.7403 131.305 65.0555 131.326 65.4448C131.352 65.8297 131.239 66.1723 130.987 66.4727ZM145.69 72.7104L135.662 64.2957L136.911 62.8071L138.425 64.0781L138.513 63.9736C138.17 63.3745 138.045 62.7059 138.138 61.9678C138.231 61.2297 138.529 60.5603 139.033 59.9597C139.128 59.8465 139.249 59.7069 139.396 59.5408C139.542 59.3747 139.657 59.2518 139.739 59.172L141.305 60.4868C141.249 60.5281 141.129 60.6313 140.945 60.7966C140.761 60.9538 140.584 61.1347 140.412 61.3393C140.003 61.8268 139.74 62.3479 139.623 62.9025C139.506 63.4492 139.532 63.9833 139.703 64.5047C139.873 65.0182 140.184 65.4648 140.637 65.8447L146.983 71.1696L145.69 72.7104ZM154.801 62.2764C154.041 63.1817 153.159 63.7953 152.155 64.117C151.155 64.4345 150.106 64.4596 149.01 64.1926C147.918 63.9212 146.853 63.3508 145.817 62.4816C144.773 61.6051 144.02 60.6506 143.558 59.6182C143.101 58.5814 142.941 57.5428 143.08 56.5022C143.223 55.4573 143.674 54.4822 144.433 53.5768C145.193 52.6715 146.073 52.0601 147.074 51.7427C148.078 51.4209 149.129 51.3976 150.226 51.6727C151.326 51.9434 152.399 52.517 153.443 53.3935C154.479 54.2628 155.224 55.2139 155.677 56.247C156.134 57.2758 156.291 58.3126 156.149 59.3576C156.01 60.3981 155.561 61.3711 154.801 62.2764ZM153.417 61.115C153.994 60.4273 154.293 59.7135 154.313 58.9738C154.333 58.234 154.145 57.5164 153.749 56.821C153.354 56.1257 152.821 55.4968 152.15 54.9343C151.48 54.3719 150.766 53.9544 150.008 53.682C149.25 53.4095 148.507 53.3455 147.777 53.49C147.048 53.6345 146.395 54.0505 145.818 54.7382C145.24 55.4259 144.944 56.1415 144.929 56.8849C144.913 57.6284 145.105 58.3496 145.505 59.0486C145.905 59.7476 146.44 60.3784 147.11 60.9408C147.781 61.5033 148.492 61.9189 149.246 62.1877C149.999 62.4565 150.739 62.5169 151.464 62.3687C152.189 62.2206 152.84 61.8027 153.417 61.115ZM160.379 55.2051L150.35 46.7904L151.6 45.3018L153.166 46.6166L153.276 46.486C152.916 45.8279 152.783 45.1418 152.878 44.4277C152.969 43.71 153.288 43.0247 153.836 42.3718C154.391 41.7102 155.003 41.2856 155.672 41.098C156.341 40.9024 157.047 40.9052 157.79 41.1063L157.878 41.0018C157.575 40.3104 157.487 39.5801 157.613 38.8109C157.735 38.0379 158.098 37.2924 158.7 36.5742C159.453 35.6776 160.349 35.1798 161.389 35.0807C162.424 34.978 163.532 35.4216 164.711 36.4113L171.423 42.043L170.13 43.5838L163.418 37.9521C162.679 37.3312 161.98 37.0899 161.322 37.2281C160.665 37.3662 160.106 37.7095 159.646 38.258C159.054 38.9631 158.809 39.6883 158.911 40.4336C159.008 41.1752 159.381 41.8181 160.029 42.3623L166.558 47.8406L165.243 49.4075L158.375 43.6443C157.805 43.1659 157.191 42.9655 156.532 43.0433C155.869 43.1175 155.293 43.4462 154.803 44.0294C154.467 44.4298 154.26 44.8936 154.181 45.4208C154.106 45.9436 154.168 46.4705 154.368 47.0015C154.567 47.5245 154.912 47.9924 155.404 48.4051L161.672 53.6643L160.379 55.2051ZM177.524 35.1966C176.713 36.1629 175.8 36.8174 174.786 37.1603C173.771 37.4951 172.719 37.5286 171.631 37.2609C170.542 36.9851 169.484 36.4162 168.457 35.5543C167.429 34.6924 166.681 33.7456 166.212 32.7139C165.742 31.6742 165.57 30.6325 165.696 29.589C165.822 28.5375 166.265 27.5591 167.025 26.6538C167.463 26.1315 167.983 25.6887 168.584 25.3256C169.185 24.9624 169.857 24.7363 170.6 24.6471C171.338 24.5543 172.131 24.6523 172.979 24.9411C173.827 25.2299 174.719 25.7669 175.654 26.5521L176.307 27.0999L169.821 34.83L168.489 33.7124L173.661 27.5493C173.095 27.0745 172.495 26.764 171.861 26.6178C171.231 26.4672 170.614 26.491 170.01 26.689C169.41 26.8826 168.876 27.258 168.409 27.8152C167.894 28.4289 167.6 29.0877 167.529 29.7917C167.457 30.4876 167.562 31.158 167.844 31.8028C168.126 32.4476 168.544 33.0019 169.097 33.4657L169.985 34.2107C170.742 34.8462 171.493 35.2544 172.239 35.4351C172.984 35.6079 173.691 35.5743 174.36 35.3343C175.024 35.0906 175.617 34.6576 176.14 34.0352C176.479 33.6304 176.73 33.2173 176.89 32.7959C177.05 32.3665 177.115 31.9354 177.086 31.5024C177.051 31.0658 176.915 30.6361 176.676 30.2134L178.343 29.0754C178.717 29.6558 178.94 30.2916 179.012 30.983C179.081 31.6707 178.993 32.376 178.75 33.0991C178.502 33.8184 178.094 34.5176 177.524 35.1966ZM178.026 21.9224L184.059 26.9844L182.766 28.5252L172.738 20.1105L173.987 18.6219L175.554 19.9367L175.663 19.8061C175.351 19.1438 175.241 18.4436 175.334 17.7055C175.422 16.9638 175.784 16.2142 176.42 15.4569C176.99 14.7779 177.627 14.3006 178.333 14.0251C179.035 13.746 179.785 13.7005 180.584 13.8887C181.378 14.0733 182.202 14.5235 183.055 15.2393L189.427 20.5862L188.134 22.1269L181.867 16.8678C181.079 16.2067 180.294 15.8963 179.511 15.9366C178.724 15.9732 178.03 16.3484 177.431 17.0622C177.019 17.5541 176.757 18.0832 176.645 18.6495C176.537 19.2115 176.594 19.7751 176.817 20.3404C177.04 20.9057 177.443 21.433 178.026 21.9224ZM185.421 4.99471L186.727 6.09037L182.366 11.2873L181.06 10.1916L185.421 4.99471ZM179.929 6.66093L181.222 5.12014L190.78 13.1404C191.215 13.5056 191.594 13.7164 191.918 13.7728C192.241 13.8212 192.523 13.7763 192.765 13.6382C193.007 13.492 193.222 13.3058 193.412 13.0795C193.555 12.9097 193.663 12.7631 193.737 12.6397C193.806 12.5126 193.862 12.411 193.904 12.3347L195.551 13.1828C195.502 13.3201 195.419 13.4988 195.301 13.7188C195.188 13.9425 195.01 14.1979 194.769 14.4852C194.404 14.9205 193.952 15.2685 193.415 15.5293C192.881 15.7857 192.307 15.8904 191.694 15.8432C191.084 15.7916 190.488 15.5212 189.905 15.0318L179.929 6.66093Z" fill="#A6A6A6" fill-opacity="0.35"/>
</g>
<defs>
<clipPath id="clip0_767_5">
<rect width="197" height="231" fill="white"/>
</clipPath>
</defs>
</svg>
