<svg width="20" height="21" viewBox="0 0 20 21" fill="none" xmlns="http://www.w3.org/2000/svg">
<path d="M9.99951 0.5C4.47451 0.5 -0.000486822 4.975 -0.000486822 10.5C-0.00162104 12.5993 0.658327 14.6456 1.88573 16.3487C3.11313 18.0517 4.84566 19.3251 6.83751 19.988C7.33751 20.075 7.52451 19.775 7.52451 19.512C7.52451 19.275 7.51151 18.488 7.51151 17.65C4.99951 18.113 4.34951 17.038 4.14951 16.475C4.03651 16.187 3.54951 15.3 3.12451 15.062C2.77451 14.875 2.27451 14.412 3.11151 14.4C3.89951 14.387 4.46151 15.125 4.64951 15.425C5.54951 16.937 6.98751 16.512 7.56151 16.25C7.64951 15.6 7.91151 15.163 8.19951 14.913C5.97451 14.663 3.64951 13.8 3.64951 9.975C3.64951 8.887 4.03651 7.988 4.67451 7.287C4.57451 7.037 4.22451 6.012 4.77451 4.637C4.77451 4.637 5.61151 4.375 7.52451 5.663C8.33858 5.43706 9.17968 5.32334 10.0245 5.325C10.8745 5.325 11.7245 5.437 12.5245 5.662C14.4365 4.362 15.2745 4.638 15.2745 4.638C15.8245 6.013 15.4745 7.038 15.3745 7.288C16.0115 7.988 16.3995 8.875 16.3995 9.975C16.3995 13.813 14.0625 14.663 11.8375 14.913C12.1995 15.225 12.5125 15.825 12.5125 16.763C12.5125 18.1 12.4995 19.175 12.4995 19.513C12.4995 19.775 12.6875 20.087 13.1875 19.987C15.1725 19.3168 16.8974 18.041 18.1194 16.3392C19.3414 14.6373 19.9989 12.5951 19.9995 10.5C19.9995 4.975 15.5245 0.5 9.99951 0.5Z" fill="black"/>
</svg>
