<svg width="24" height="19" viewBox="0 0 24 19" fill="none" xmlns="http://www.w3.org/2000/svg">
<path d="M23.9995 2.9566V16.8656C23.9995 17.7696 23.2675 18.5016 22.3635 18.5016H18.5445V9.2296L11.9995 14.1396L5.45451 9.2296V18.5026H1.63551C1.42059 18.5026 1.20776 18.4603 1.00921 18.378C0.810657 18.2957 0.630261 18.1751 0.478332 18.0231C0.326402 17.8711 0.205916 17.6906 0.123758 17.492C0.0416001 17.2934 -0.000619349 17.0805 -0.000487976 16.8656V2.9566C-0.000487976 0.933601 2.30851 -0.221399 3.92651 0.992601L5.45451 2.1396L11.9995 7.0476L18.5445 2.1376L20.0725 0.992601C21.6895 -0.220399 23.9995 0.933601 23.9995 2.9566Z" fill="black"/>
</svg>
