<svg xmlns="http://www.w3.org/2000/svg" viewBox="0 0 519.19 199.93"><defs><style>.cls-1{fill:#f9b117}.cls-2{fill:none;stroke:#141414;stroke-miterlimit:10;stroke-width:2px}.cls-3{fill:#0e394f}.cls-4{fill:#faca3f}.cls-6{fill:#2c6e9b}.cls-18,.cls-7{fill:#0e3964}.cls-7{opacity:.3}.cls-8{fill:#fbd766}.cls-12{fill:#062538}.cls-13{fill:#4cf58c}.cls-14{fill:#185472}.cls-15{fill:#ffcb6e}.cls-16{fill:#f7b40d}.cls-21{fill:#062c4c}.cls-22{fill:#141414}.cls-23{fill:#4d9ac4}.cls-26{fill:#fff}</style></defs><g id="Layer_2" data-name="Layer 2"><g id="Layer_1-2" data-name="Layer 1"><path d="m80.67 40.05-13.78-6.61 2.35-12.03 4.91.96-1.61 8.23 10.3 4.94-2.17 4.51z" class="cls-1"/><path d="m80.67 40.05-13.78-6.61 2.35-12.03 4.91.96-1.61 8.23 10.3 4.94-2.17 4.51z" class="cls-2"/><circle cx="71.7" cy="18.19" r="6.23" class="cls-3"/><circle cx="71.7" cy="18.19" r="6.23" class="cls-2"/><path d="M64.18 52.6a22 22 0 0 1 36.43-11.3L112.12 52l39.52 36.54-51.41 16-51.4 16L60.72 67.9Z" class="cls-4"/><path d="m113.69 53.29-50.9 15.8.78-3.45A49.73 49.73 0 0 0 78.8 60.2a47.08 47.08 0 0 0 19.77-20.15 22.44 22.44 0 0 1 4 3Z" style="fill:#f99f00"/><path d="M360.46 179.64h21.06a24 24 0 0 0 17-7 24 24 0 0 1 33.94 0l4.5 4.5a24 24 0 0 0 17 7h32.56" class="cls-2"/><path d="M510.68 174.86c-4.86-9.31-13.56-16.29-24.79-16.29A29.13 29.13 0 0 0 458 179.43a6.48 6.48 0 0 0 6.25 8.26h35.71l11.66-1" class="cls-6"/><path d="M467.11 179.43a6.47 6.47 0 0 0 6.24 8.26h-9.14a6.48 6.48 0 0 1-6.25-8.26 29.13 29.13 0 0 1 27.93-20.86 28.79 28.79 0 0 1 4.58.36 29.15 29.15 0 0 0-23.36 20.5Z" class="cls-7"/><path d="M511.7 183.56a24.65 24.65 0 0 0-16.37-23.42 29.13 29.13 0 0 0-37.33 19.2 6.5 6.5 0 0 0 6.22 8.35h43.37a4.12 4.12 0 0 0 4.12-4.13Z" class="cls-2"/><path d="m69.56488701 143.0953839 16.78151812-5.20437793 9.88150529 31.86291659a8.8 8.8 0 0 1-5.79845382 11.011718 8.8 8.8 0 0 1-11.011718-5.79845382l-9.8815053-31.86291659.02865371-.00888624Zm61.135847-19.81775254 16.81017182-5.21326418 9.88150529 31.86291659a8.8 8.8 0 0 1-5.79845382 11.011718 8.8 8.8 0 0 1-11.011718-5.79845382l-9.88150529-31.86291659Z" class="cls-8"/><path d="m69.56488701 143.0953839 16.78151812-5.20437793 9.88150529 31.86291659a8.8 8.8 0 0 1-5.79845382 11.011718 8.8 8.8 0 0 1-11.011718-5.79845382l-9.8815053-31.86291659.02865371-.00888624Zm61.135847-19.81775254 16.81017182-5.21326418 9.88150529 31.86291659a8.8 8.8 0 0 1-5.79845382 11.011718 8.8 8.8 0 0 1-11.011718-5.79845382l-9.88150529-31.86291659Z" class="cls-2"/><path d="m74.67932032 129.07933373 60.59302842-18.7914477 12.14453587 39.16005935a18 18 0 0 1-11.86047372 22.52396864l-26.26589347 8.14572528a18 18 0 0 1-22.52396863-11.86047372L74.6220129 129.09710623Z" class="cls-4"/><path d="M79.73 136.71h63.44v7.78H79.73z" style="fill:#f7b000" transform="rotate(-17.23 111.47391396 140.61923841)"/><path d="m74.67932032 129.07933373 60.59302842-18.7914477 12.14453587 39.16005935a18 18 0 0 1-11.86047372 22.52396864l-26.26589347 8.14572528a18 18 0 0 1-22.52396863-11.86047372L74.6220129 129.09710623ZM64.18 52.6a22 22 0 0 1 36.43-11.3L112.12 52l38.52 36.54-50.41 16-50.4 16L60.72 67.9Z" class="cls-2"/><rect width="107.22" height="81.04" x="44.68" y="57.67" class="cls-1" rx="13.06" transform="matrix(.96 -.3 .3 .96 -24.68 33.53)"/><path d="m156.39 104.53 1.24 4a13.06 13.06 0 0 1-8.6 16.34l-77.46 24a13.07 13.07 0 0 1-16.35-8.6l-1.24-4a13.06 13.06 0 0 0 16.34 8.6l77.47-24a13 13 0 0 0 8.6-16.34Z" style="fill:#e59303;opacity:.5"/><rect width="92.9" height="67.12" x="51.84" y="64.62" class="cls-3" rx="7.84" transform="matrix(.96 -.3 .3 .96 -24.68 33.53)"/><path d="m148.09 102 2.19 7a7.84 7.84 0 0 1-5.17 9.81l-73.75 22.87a7.85 7.85 0 0 1-9.82-5.17l-2.18-7a7.84 7.84 0 0 0 9.81 5.16l73.76-22.88a7.83 7.83 0 0 0 5.16-9.79Z" class="cls-12"/><rect width="6.14" height="18.83" x="83.96" y="91.14" class="cls-13" rx="3.07" transform="rotate(-17.23 87.05263776 100.59352613)"/><rect width="6.14" height="18.83" x="105.85" y="84.35" class="cls-13" rx="3.07" transform="rotate(-17.23 108.94819556 93.78276991)"/><rect width="5.16" height="15.47" x="56.81" y="76.3" class="cls-14" rx="2.58" transform="rotate(72.76 59.38259594 84.0428163)"/><circle cx="71.03" cy="80.55" r="2.46" class="cls-14"/><rect width="20.12" height="3.61" x="54.89" y="67.92" class="cls-15" rx="1.81" transform="rotate(-17.23 64.95663883 69.73147174)"/><circle cx="77.3" cy="65.8" r="1.88" class="cls-15"/><rect width="11.42" height="2.28" x="76.73" y="47.12" class="cls-16" rx="1.14" transform="rotate(-17.23 82.45370258 48.27767196)"/><rect width="11.42" height="2.28" x="75.64" y="43.63" class="cls-16" rx="1.14" transform="rotate(-17.23 81.36458158 44.7704224)"/><rect width="17.47" height="3.49" x="107.85" y="156.6" class="cls-16" rx="1.75" transform="rotate(-17.23 116.64850129 158.38450633)"/><rect width="17.47" height="3.49" x="106.2" y="151.26" class="cls-16" rx="1.75" transform="matrix(.96 -.3 .3 .96 -40.17 40.92)"/><rect width="107.22" height="81.04" x="44.68" y="57.67" class="cls-2" rx="13.06" transform="matrix(.96 -.3 .3 .96 -24.68 33.53)"/><path d="M409 189.43c0 5.8-118.72 10.5-222 10.5s-187-4.7-187-10.5 83.72-10.5 187-10.5 222 4.7 222 10.5Zm110.19 0c0 2.35-19 4.26-35.53 4.26s-29.93-1.91-29.93-4.26 13.4-4.26 29.93-4.26 35.53 1.91 35.53 4.26Z" style="opacity:.2;fill:#0e394f"/><path d="M372.76 1H167.35a6.17 6.17 0 0 0-6.07 5.11l-23.84 156.62a6.16 6.16 0 0 0 6.07 7.2h213.26a6.15 6.15 0 0 0 6-5l24.67-146.16A15 15 0 0 0 372.76 1Z" class="cls-18"/><path d="M372.76 1H167.35a6.17 6.17 0 0 0-6.07 5.11l-23.84 156.62a6.16 6.16 0 0 0 6.07 7.2h213.26a6.15 6.15 0 0 0 6-5l24.67-146.16A15 15 0 0 0 372.76 1Z" class="cls-2"/><path d="M373 1H158.76a9.42 9.42 0 0 0-9.29 7.83l-24.62 161.1H351L378.3 7.39A5.39 5.39 0 0 0 373 1Z" class="cls-6"/><path d="M373 1H158.76a9.42 9.42 0 0 0-9.29 7.83l-24.62 161.1H351L378.3 7.39A5.39 5.39 0 0 0 373 1Z" class="cls-2"/><path d="M367.14 13H160.25l-21.83 144.93h204.77L367.14 13z" class="cls-3"/><path d="m367.73 13.22-1.13 6H159.8l1.03-6h206.9z" class="cls-12"/><path d="m166.15 13-21.84 144.93h-6L160.15 13h6z" class="cls-12"/><path d="M189.67 29.07h-11.12l-1.42 4.21h11.99l.55-4.21zm16 0h-12.12l-1.42 4.21h11.99l1.55-4.21zm14 0h-11.12l-.42 4.21h9.99l1.55-4.21zm9.5 0h-4.12l-1.42 4.21h4.99l.55-4.21zm-54 0h-4.12l-1.42 4.21 4.58.14.96-4.35zm12.5 9h-11.12l-1.42 4.21h11.99l.55-4.21zm15 0h-11.12l-1.42 4.21h11.99l.55-4.21zm15 0h-11.12l-.42 4.21h10.99l.55-4.21zm8.5 0h-4.12l-1.42 4.21h4.99l.55-4.21zm-53 0h-4.12l-1.42 4.21h4.83l.71-4.21z" class="cls-13"/><path d="M27.57 168.93h228.28v21H35.29a13.68 13.68 0 0 1-13.69-13.68v-1.35a6 6 0 0 1 5.97-5.97Z" style="fill:#19517f"/><path d="M255.85 181.93v8H35.28a13.69 13.69 0 0 1-13.68-13.68v-1.35a5.81 5.81 0 0 1 .6-2.6 13.73 13.73 0 0 0 13.08 9.63Zm98.01-19v6H125.03l.83-6h228z" class="cls-7"/><path d="M90.85 168.93h81a11 11 0 0 1-11 11h-59a11 11 0 0 1-11-11Z" class="cls-18"/><path d="M90.85 168.93h81a11 11 0 0 1-11 11h-59a11 11 0 0 1-11-11Z" class="cls-2"/><path d="M367.05 13 343.1 157.93H138.37L364.24 13h2.81z" class="cls-12"/><rect width="15.48" height="3.52" x="366.62" y="60.1" class="cls-21" rx="1.76" transform="rotate(98.85 374.36264545 61.85880671)"/><rect width="15.48" height="3.52" x="370.09" y="37.85" class="cls-21" rx="1.76" transform="rotate(98.85 377.82749532 39.60596482)"/><rect width="15.48" height="3.52" x="119.85" y="172.67" class="cls-22" rx="1.76"/><rect width="29.63" height="5.32" x="35.42" y="168.99" class="cls-6" rx="2.66"/><circle cx="69.99" cy="171.65" r="2.66" class="cls-6"/><rect width="29.63" height="5.32" x="125.61" y="99.72" class="cls-23" rx="2.66" transform="rotate(-81.12 140.43438541 102.38334561)"/><circle cx="143.47" cy="82.87" r="2.66" class="cls-23"/><rect width="29.63" height="5.32" x="162.42" y="3.99" class="cls-23" rx="2.66"/><circle cx="196.99" cy="6.65" r="2.66" class="cls-23"/><circle cx="245.85" cy="6.93" r="3" style="fill:#f95d5d"/><path d="M71.57 163.93h23v5h-23zm-34.72 0h23v5h-23zm69.43 0h23v5h-23zm34.72 0h23v5h-23zm34.71 0h23v5h-23zm34.72 0h23v5h-23zm34.71 0h23v5h-23zm69.71 0h23v5h-23zm-34.86.15h23v5h-23z" style="fill:#033156"/><path d="M71.57 163.93h23v5h-23zm-34.72 0h23v5h-23zm69.43 0h23v5h-23zm34.72 0h23v5h-23zm34.71 0h23v5h-23zm34.72 0h23v5h-23zm34.71 0h23v5h-23zm69.71 0h23v5h-23zm-34.86.15h23v5h-23zM367.04 13H160.15l-21.83 144.93h204.77L367.04 13z" class="cls-2"/><path d="M338.69 29.57h-86a8.52 8.52 0 0 0-8.44 7.26l-8.35 55.4a8.53 8.53 0 0 0 8.44 9.8h85.23a8.53 8.53 0 0 0 8.43-7.14l9.16-55.4a8.53 8.53 0 0 0-8.47-9.92Z" class="cls-26"/><path d="m347 39.5-9.15 55.39a8.54 8.54 0 0 1-8.42 7.14h-85.22a8.55 8.55 0 0 1-8.35-6.72l102.46-65.74h.27A8.54 8.54 0 0 1 347 39.5Z" style="fill:#f4f3f2"/><path d="M27.57 168.93h228.28v21H35.29a13.68 13.68 0 0 1-13.69-13.68v-1.35a6 6 0 0 1 5.97-5.97Z" class="cls-2"/><rect width="137" height="21" x="234.85" y="168.93" class="cls-18" rx="10.5"/><rect width="15.48" height="3.52" x="344.37" y="177.67" class="cls-22" rx="1.76"/><rect width="15.48" height="3.52" x="321.85" y="177.67" class="cls-22" rx="1.76"/><rect width="137" height="21" x="234.85" y="168.93" class="cls-2" rx="10.5"/><circle cx="66.54" cy="53.08" r=".64" class="cls-26"/><path d="m108 60.05 17.26-5.36a7.85 7.85 0 0 1 9.74 5.17l4.2 13.56M89.42 65.8l11.43-3.55m30.5 60.82-60 18.61a7.85 7.85 0 0 1-9.82-5.17L46.3 87.39a7.85 7.85 0 0 1 5.17-9.82l31.89-9.89" style="stroke-linecap:round;stroke-linejoin:round;stroke-width:2px;fill:none;stroke:#141414"/><path d="M265.39 76.4h-11.12l-1.42 4.22h11.99l.55-4.22zm16 0h-12.12l-1.41 4.22h11.98l1.55-4.22zm14 0h-11.12l-.41 4.22h9.98l1.55-4.22zm9.5 0h-4.12l-1.41 4.22h4.98l.55-4.22zm-54 0h-4.12l-1.42 4.22 4.58.13.96-4.35zm12.5 9h-11.12l-1.42 4.22h11.99l.55-4.22zm15 0h-11.12l-1.41 4.22h11.98l.55-4.22zm15 0h-11.12l-.41 4.22h10.98l.55-4.22zm8.5 0h-4.12l-1.41 4.22h4.98l.55-4.22zm-53 0h-4.12l-1.42 4.22h4.83l.71-4.22z" class="cls-8"/><path d="M338.69 29.57h-86a8.52 8.52 0 0 0-8.44 7.26l-8.35 55.4a8.53 8.53 0 0 0 8.44 9.8h85.23a8.53 8.53 0 0 0 8.43-7.14l9.16-55.4a8.53 8.53 0 0 0-8.47-9.92Z" style="stroke-width:1.3px;stroke-miterlimit:10;stroke:#141414;fill:none"/></g></g></svg>